<svg xmlns="http://www.w3.org/2000/svg" width="131" height="111" viewBox="0 0 131 111">
  <g fill="none" fill-rule="evenodd" transform="translate(1 1)">
    <path fill="#E0EAF7" d="M75.4423021,90.8357355 L70.8641552,90.8357355 L70.8641552,82.8904463 C70.8641552,82.1968099 70.2996224,81.6292893 69.6012182,81.6292893 L64.5494699,81.6292893 C63.8510657,81.6292893 63.2865328,82.1968099 63.2865328,82.8904463 L63.2865328,90.8357355 L58.708386,90.8357355 C58.1413273,90.8357355 57.64373,91.2140826 57.4909147,91.7689917 L55.8213119,97.7594876 C55.7164881,98.1378347 55.7935273,98.541405 56.0334853,98.8566942 C56.2709175,99.1719835 56.6434839,99.361157 57.0387832,99.361157 L77.1119049,99.361157 C77.8343049,99.361157 78.4001007,98.7936364 78.4001007,98.1 C78.4001007,97.8856033 78.3521091,97.6964298 78.2637035,97.5324793 L76.6597734,91.7689917 C76.506958,91.2140826 76.0093608,90.8357355 75.4423021,90.8357355 Z"/>
    <path fill="#3877C2" stroke="#3877C2" stroke-width=".9" d="M53.288221,95.0371901 L54.2556307,91.5563967 L69.0698825,91.5563967 L70.0372923,95.0371901 L53.288221,95.0371901 Z M71.247186,89.9673388 C71.0943706,89.4124298 70.5967734,89.0340826 70.0297147,89.0340826 L65.4515678,89.0340826 L65.4515678,81.0887934 C65.4515678,80.395157 64.8870349,79.8276364 64.1886307,79.8276364 C63.4902266,79.8276364 62.9256937,80.395157 62.9256937,81.0887934 L62.9256937,89.0340826 L60.3998196,89.0340826 L60.3998196,81.0887934 C60.3998196,80.395157 59.8352867,79.8276364 59.1368825,79.8276364 C58.4384783,79.8276364 57.8739454,80.395157 57.8739454,81.0887934 L57.8739454,89.0340826 L53.2957986,89.0340826 C52.7287398,89.0340826 52.2311426,89.4124298 52.0783273,89.9673388 L50.4087245,95.9578347 C50.3039007,96.3361818 50.3809398,96.7397521 50.6208979,97.0550413 C50.85833,97.3703306 51.2308965,97.5595041 51.6261958,97.5595041 L71.6993175,97.5595041 L71.7245762,97.5595041 C72.4217175,97.5595041 72.9875133,96.9919835 72.9875133,96.2983471 C72.9875133,96.0839504 72.9395217,95.8947769 72.8511161,95.7308264 L71.247186,89.9673388 L71.247186,89.9673388 Z"/>
    <path fill="#E0EAF7" d="M83.4893762,60.0617025 C83.4893762,70.4410248 75.7210503,78.8781653 66.1732461,78.8781653 C59.3975888,78.8781653 53.5350349,74.6154545 50.6921636,68.4483967 C50.3410671,67.6790909 50.0341734,66.8971736 49.7803231,66.0774215 C49.1917944,64.185686 48.858379,62.1678347 48.858379,60.0617025 L48.858379,41.9514876 C48.858379,41.5605289 49.1690615,41.2578512 49.5517314,41.2578512 L82.7947608,41.2578512 C83.1774307,41.2578512 83.4893762,41.5605289 83.4893762,41.9514876 L83.4893762,60.0617025 Z"/>
    <path fill="#E0EAF7" d="M88.8368321 58.9338678C87.8580559 62.6164463 85.1250601 65.3909917 82.357965 65.6684463 82.9704895 63.6127603 83.3089566 61.4309587 83.3089566 59.160876L83.3089566 49.1599008C83.5754363 49.1094545 83.8419161 49.0590083 84.1096587 49.0590083 84.4784363 49.0590083 84.8446881 49.1094545 85.1995734 49.1977355 88.3543902 50.0427107 90.0202042 54.494595 88.8368321 58.9338678zM43.5096601 58.9338678C42.3262881 54.494595 43.9921021 50.0427107 47.1469189 49.1977355 47.5018042 49.1094545 47.8680559 49.0590083 48.2380965 49.0590083 48.5045762 49.0590083 48.7723189 49.1094545 49.0387986 49.1599008L49.0387986 59.160876C49.0387986 61.4309587 49.3760028 63.6127603 49.9885273 65.6684463 47.2214321 65.3909917 44.4884363 62.6164463 43.5096601 58.9338678z"/>
    <path fill="#3877C2" stroke="#3877C2" stroke-width=".9" d="M87.0326363,56.2313884 C86.0538601,59.9139669 83.3208643,62.6885124 80.5537692,62.9659669 C81.1662937,60.910281 81.5047608,58.7284793 81.5047608,56.4583967 L81.5047608,46.4574215 C81.7712405,46.4069752 82.0377203,46.3565289 82.3054629,46.3565289 C82.6742405,46.3565289 83.0404923,46.4069752 83.3953776,46.4952562 C86.5501944,47.3402314 88.2160084,51.7921157 87.0326363,56.2313884 Z M78.9788867,56.4583967 C78.9788867,66.837719 71.2105608,75.2748595 61.6627566,75.2748595 C54.8870993,75.2748595 49.0245454,71.0121488 46.1816741,64.8450909 C45.8305776,64.0757851 45.5236839,63.2938678 45.2698335,62.4741157 C44.6813049,60.5823802 44.3478895,58.5645289 44.3478895,56.4583967 L44.3478895,38.3481818 C44.3478895,37.9572231 44.658572,37.6545455 45.0412419,37.6545455 L78.2842713,37.6545455 C78.6669412,37.6545455 78.9788867,37.9572231 78.9788867,38.3481818 L78.9788867,56.4583967 Z M36.2928769,56.2313884 C35.1095049,51.7921157 36.7753189,47.3402314 39.9301356,46.4952562 C40.285021,46.4069752 40.6512727,46.3565289 41.0213133,46.3565289 C41.287793,46.3565289 41.5555356,46.4069752 41.8220154,46.4574215 L41.8220154,56.4583967 C41.8220154,58.7284793 42.1592196,60.910281 42.771744,62.9659669 C40.0046489,62.6885124 37.2716531,59.9139669 36.2928769,56.2313884 Z M84.0445273,44.0612231 C83.468628,43.9098843 82.886414,43.8342149 82.3054629,43.8342149 C82.0377203,43.8342149 81.7712405,43.859438 81.5047608,43.8972727 L81.5047608,38.3481818 C81.5047608,36.5699504 80.0599608,35.1322314 78.2842713,35.1322314 L45.0412419,35.1322314 C43.2655524,35.1322314 41.8220154,36.5699504 41.8220154,38.3481818 L41.8220154,43.8846612 C41.5555356,43.8468264 41.287793,43.8342149 41.0200503,43.8342149 C40.4390993,43.8342149 39.8568853,43.9098843 39.280986,44.0612231 C34.7192573,45.2719339 32.2881035,51.0101983 33.8516196,56.8871901 C35.2181175,62.0074876 39.1850028,65.5387273 43.2087203,65.5387273 C43.3792168,65.5387273 43.5497133,65.5261157 43.7202098,65.5135041 C46.8939706,72.7525455 53.7327748,77.7971736 61.6627566,77.7971736 C69.5927384,77.7971736 76.4328056,72.7525455 79.6065664,65.5135041 C79.7758,65.5261157 79.9462965,65.5387273 80.116793,65.5387273 C84.1405105,65.5387273 88.1073958,62.0074876 89.4738937,56.8871901 C91.0374098,51.0101983 88.6062559,45.2719339 84.0445273,44.0612231 L84.0445273,44.0612231 Z"/>
    <path fill="#3877C2" stroke="#3877C2" stroke-width=".9" d="M65.1547776,55.1720165 C64.7279049,55.4873058 64.5485678,56.0422149 64.7039091,56.5466777 L65.9643203,60.6580496 L62.377579,58.1861818 C61.9456545,57.8961157 61.3760699,57.8961157 60.9454084,58.1861818 L57.3586671,60.6580496 L58.6165524,56.5466777 C58.7718937,56.0422149 58.5925566,55.4873058 58.1669468,55.1720165 L54.7090252,52.5740331 L59.0598433,52.4857521 C59.587751,52.4731405 60.0525119,52.1452397 60.2267972,51.6407769 L61.6614937,47.5672397 L63.0949273,51.6407769 C63.2679496,52.1452397 63.7339734,52.4731405 64.2618811,52.4857521 L68.6126993,52.5740331 L65.1547776,55.1720165 Z M70.6637091,50.0895537 L65.187614,49.9886612 L63.3917175,44.8809752 C63.1328154,44.1495041 62.436937,43.6576529 61.6614937,43.6576529 C60.8822615,43.6576529 60.1863832,44.1495041 59.930007,44.8809752 L58.1341105,49.9886612 L52.6504377,50.0895537 C51.8724685,50.1147769 51.1879566,50.6192397 50.9479986,51.3633223 C50.7067776,52.107405 50.9656797,52.927157 51.5920965,53.3937851 L55.9429147,56.6475702 L54.3642433,61.8057025 C54.1356517,62.5497851 54.4033944,63.3569256 55.0386517,63.8235537 C55.3556489,64.0631736 55.7294783,64.1766777 56.1184629,64.1766777 C56.4948182,64.1766777 56.8572811,64.0631736 57.1591231,63.8487769 L61.6614937,60.7589421 L66.1575496,63.8487769 C66.7852293,64.2901818 67.6452895,64.2901818 68.2906503,63.8235537 C68.91833,63.3569256 69.1873356,62.5497851 68.958744,61.8057025 L67.3788098,56.6475702 L71.7346797,53.3937851 C72.3547818,52.927157 72.612421,52.107405 72.3737259,51.3633223 C72.1337678,50.6192397 71.4492559,50.1147769 70.6637091,50.0895537 L70.6637091,50.0895537 Z"/>
    <path fill="#3877C2" stroke="#3877C2" stroke-width=".5" d="M112.417274 5.45034532C112.23902 5.57492141 112.164133 5.79417534 112.229 5.99349708L112.755323 7.61796932 111.257571 6.64129276C111.077208 6.52668276 110.839361 6.52668276 110.659526 6.64129276L109.161774 7.61796932 109.687042 5.99349708C109.751909 5.79417534 109.677022 5.57492141 109.499295 5.45034532L108.055336 4.42383832 109.872151 4.38895702C110.092595 4.38397398 110.28667 4.25441484 110.359448 4.05509309L110.958548 2.44556999 111.557122 4.05509309C111.629372 4.25441484 111.823975 4.38397398 112.044418 4.38895702L113.861233 4.42383832 112.417274 5.45034532zM114.717694 3.44217872L112.430986 3.40231437 111.681055 1.38418168C111.572943 1.09516515 111.282358.900826446 110.958548.900826446 110.633157.900826446 110.342572 1.09516515 110.235514 1.38418168L109.485584 3.40231437 107.195711 3.44217872C106.870847 3.45214481 106.585009 3.65146656 106.484807 3.94546613 106.384078 4.23946571 106.49219 4.56336355 106.753769 4.74773616L108.570584 6.03336143 107.911362 8.0714263C107.815907 8.36542587 107.927711 8.68434067 108.192982 8.86871328 108.325354 8.96339111 108.481457 9.00823851 108.64389 9.00823851 108.801048 9.00823851 108.952405 8.96339111 109.078448 8.87867937L110.958548 7.65783367 112.836012 8.87867937C113.098118 9.0530859 113.457262 9.0530859 113.726752 8.86871328 113.988858 8.68434067 114.10119 8.36542587 114.005734 8.0714263L113.345985 6.03336143 115.16491 4.74773616C115.423852 4.56336355 115.531437 4.23946571 115.431763 3.94546613 115.331561 3.65146656 115.045722 3.45214481 114.717694 3.44217872L114.717694 3.44217872zM5.96972155 29.7726594C5.79146802 29.8972355 5.71658045 30.1164894 5.78144786 30.3158111L6.30777039 31.9402834 4.8100189 30.9636068C4.62965587 30.8489968 4.39180871 30.8489968 4.21197306 30.9636068L2.71422157 31.9402834 3.23948934 30.3158111C3.30435675 30.1164894 3.22946917 29.8972355 3.05174303 29.7726594L1.60778402 28.7461524 3.42459877 28.7112711C3.64504247 28.706288 3.83911731 28.5767289 3.91189538 28.3774071L4.51099598 26.767884 5.1095692 28.3774071C5.18181988 28.5767289 5.3764221 28.706288 5.59686581 28.7112711L7.41368055 28.7461524 5.96972155 29.7726594zM8.27014127 27.7644928L5.98343336 27.7246284 5.23350286 25.7064957C5.12539051 25.4174792 4.83480563 25.2231405 4.51099598 25.2231405 4.18560419 25.2231405 3.89501931 25.4174792 3.78796172 25.7064957L3.03803122 27.7246284.748159046 27.7644928C.423294639 27.7744589.13745615 27.9737806.0372544658 28.2677802-.0634745957 28.5617798.0446377478 28.8856776.306216881 29.0700502L2.12303163 30.3556755 1.46381002 32.3937403C1.36835473 32.6877399 1.48015872 33.0066547 1.74542949 33.1910273 1.87780119 33.2857052 2.03390487 33.3305526 2.19633707 33.3305526 2.3534955 33.3305526 2.50485278 33.2857052 2.63089595 33.2009934L4.51099598 31.9801477 6.38845911 33.2009934C6.65056562 33.3753999 7.00970955 33.3753999 7.27919935 33.1910273 7.54130586 33.0066547 7.65363722 32.6877399 7.55818193 32.3937403L6.89843295 30.3556755 8.7173572 29.0700502C8.97629945 28.8856776 9.08388442 28.5617798 8.98421011 28.2677802 8.88400843 27.9737806 8.59816994 27.7744589 8.27014127 27.7644928L8.27014127 27.7644928zM121.438253 89.2272048C121.259999 89.3517809 121.185112 89.5710348 121.249979 89.7703566L121.776302 91.3948288 120.27855 90.4181523C120.098187 90.3035423 119.86034 90.3035423 119.680505 90.4181523L118.182753 91.3948288 118.708021 89.7703566C118.772888 89.5710348 118.698001 89.3517809 118.520274 89.2272048L117.076315 88.2006978 118.89313 88.1658165C119.113574 88.1608335 119.307649 88.0312743 119.380427 87.8319526L119.979527 86.2224295 120.578101 87.8319526C120.650351 88.0312743 120.844954 88.1608335 121.065397 88.1658165L122.882212 88.2006978 121.438253 89.2272048zM123.738673 87.2190382L121.451965 87.1791739 120.702034 85.1610412C120.593922 84.8720247 120.303337 84.677686 119.979527 84.677686 119.654136 84.677686 119.363551 84.8720247 119.256493 85.1610412L118.506563 87.1791739 116.216691 87.2190382C115.891826 87.2290043 115.605988 87.4283261 115.505786 87.7223256 115.405057 88.0163252 115.513169 88.3402231 115.774748 88.5245957L117.591563 89.8102209 116.932341 91.8482858C116.836886 92.1422854 116.94869 92.4612002 117.213961 92.6455728 117.346333 92.7402506 117.502436 92.785098 117.664869 92.785098 117.822027 92.785098 117.973384 92.7402506 118.099427 92.6555389L119.979527 91.4346932 121.856991 92.6555389C122.119097 92.8299454 122.478241 92.8299454 122.747731 92.6455728 123.009837 92.4612002 123.122169 92.1422854 123.026713 91.8482858L122.366964 89.8102209 124.185889 88.5245957C124.444831 88.3402231 124.552416 88.0163252 124.452742 87.7223256 124.35254 87.4283261 124.066701 87.2290043 123.738673 87.2190382L123.738673 87.2190382z"/>
    <path stroke="#90B0DB" stroke-width="2.7" d="M92.465035,45.4917355 L108.702797,35.5826446" stroke-linecap="round"/>
    <path stroke="#E0EAF7" stroke-width="2.7" d="M87.0524476,33.7809917 L104.192308,13.0619835" stroke-linecap="round"/>
    <path stroke="#90B0DB" stroke-width="2.7" d="M76.2272727 28.3760331L79.8356643 18.4669421M65.4020979 27.4752066L65.4020979.450413223M50.0664336 27.4752066L41.0454545 6.75619835M38.3391608 31.0785124L29.7464716 21.1694215" stroke-linecap="round"/>
    <path stroke="#E0EAF7" stroke-width="2.7" d="M30.2202797,42.7892562 L13.0804196,33.7809917" stroke-linecap="round"/>
    <path stroke="#90B0DB" stroke-width="2.7" d="M26.6118881 56.3016529L20.2972028 55.4008264M32.9265734 68.9132231L10.3741259 72.5165289M41.9475524 76.1198347L20.2972028 89.6322314M49.1643357 83.3264463L28.4160839 108.549587M76.6783217 85.1280992L86.3932222 108.410998M79.8356643 77.0206612L101.486014 100.442149" stroke-linecap="round"/>
    <path stroke="#E0EAF7" stroke-width="2.7" d="M87.0524476,71.6157025 L111.409091,85.1280992" stroke-linecap="round"/>
    <path stroke="#90B0DB" stroke-width="2.7" d="M105.094406 104.045455L106.318156 105.369315M14.8846154 54.5L13.0985527 54.2452078M26.6118881 16.6652893L24.2497901 13.9413174M81.6398601 13.9628099L82.5647172 11.4230376M97.8776224 55.4008264L128.548951 49.9958678M93.3671329 64.4090909L108.702797 66.2107438M114.115385 67.1115702L116.803142 67.4273313" stroke-linecap="round"/>
  </g>
</svg>
