<svg xmlns="http://www.w3.org/2000/svg" width="97" height="108" viewBox="0 0 97 108">
  <g fill="none" fill-rule="evenodd">
    <ellipse cx="53.378" cy="10.2" fill="#E0EAF7" rx="6.573" ry="6.6"/>
    <rect width="89.634" height="78" x="7.366" y="30" fill="#D8E5F6" fill-opacity=".8" rx="2.4"/>
    <path stroke="#E0EAF7" stroke-width="3.6" d="M83.2560976,34.2 L55.7682927,11.4" stroke-linecap="round"/>
    <path stroke="#E0EAF7" stroke-width="3.6" d="M53.3780488,33 L25.8902439,10.2" stroke-linecap="round" transform="matrix(-1 0 0 1 79.268 0)"/>
    <path fill="#3877C2" d="M4.18178897,37.8292235 L88.1381188,37.8292235 L88.1381188,27.0309882 L4.18178897,27.0309882 L4.18178897,37.8292235 Z M4.18178897,97.7507294 L88.1381188,97.7507294 L88.1381188,41.9233412 L4.18178897,41.9233412 L4.18178897,97.7507294 Z M42.0329639,13.8356471 C43.2103669,14.6483294 44.6289247,15.1273412 46.1589406,15.1273412 C47.6889565,15.1273412 49.1075143,14.6483294 50.2849173,13.8376941 L61.1348579,22.9368706 L31.1830233,22.9368706 L42.0329639,13.8356471 Z M46.1589406,4.39665882 C47.9686151,4.39665882 49.4418887,5.88487059 49.4418887,7.71698824 C49.4418887,9.54501176 47.9686151,11.0332235 46.1589406,11.0332235 C44.3472397,11.0332235 42.8759926,9.54501176 42.8759926,7.71698824 C42.8759926,5.88487059 44.3472397,4.39665882 46.1589406,4.39665882 Z M90.1646299,22.9368706 L67.4798643,22.9368706 L52.8707455,10.6852235 C53.2659152,9.77428235 53.4949109,8.77327059 53.4949109,7.71698824 C53.4949109,3.62901176 50.2038568,0.302541176 46.1589406,0.302541176 C42.1140244,0.302541176 38.8229703,3.62901176 38.8229703,7.71698824 C38.8229703,8.77327059 39.0499396,9.77428235 39.4471357,10.6831765 L24.838017,22.9368706 L2.15527784,22.9368706 C1.03461718,22.9368706 0.128766702,23.8539529 0.128766702,24.9839294 L0.128766702,99.7998353 C0.128766702,100.929812 1.03461718,101.846894 2.15527784,101.846894 L90.1646299,101.846894 C91.2832641,101.846894 92.191141,100.929812 92.191141,99.7998353 L92.191141,24.9839294 C92.191141,23.8539529 91.2832641,22.9368706 90.1646299,22.9368706 L90.1646299,22.9368706 Z"/>
    <path fill="#90B0DB" d="M55.9125387 54.6478588L56.9987487 54.6478588C58.1173828 54.6478588 59.0252598 53.7328235 59.0252598 52.6008L59.0252598 51.5097176C59.0252598 50.3776941 58.1173828 49.4626588 56.9987487 49.4626588L55.9125387 49.4626588C54.7939046 49.4626588 53.8860276 50.3776941 53.8860276 51.5097176L53.8860276 52.6008C53.8860276 53.7328235 54.7939046 54.6478588 55.9125387 54.6478588M77.1807731 54.6478588L78.2649565 54.6478588C79.3856172 54.6478588 80.2914677 53.7328235 80.2914677 52.6008L80.2914677 51.5097176C80.2914677 50.3776941 79.3856172 49.4626588 78.2649565 49.4626588L77.1807731 49.4626588C76.0601124 49.4626588 75.1542619 50.3776941 75.1542619 51.5097176L75.1542619 52.6008C75.1542619 53.7328235 76.0601124 54.6478588 77.1807731 54.6478588M13.384176 66.6518118L14.4683595 66.6518118C15.5890201 66.6518118 16.4948706 65.7347294 16.4948706 64.6047529L16.4948706 63.5136706C16.4948706 62.3836941 15.5890201 61.4666118 14.4683595 61.4666118L13.384176 61.4666118C12.2635154 61.4666118 11.3576649 62.3836941 11.3576649 63.5136706L11.3576649 64.6047529C11.3576649 65.7347294 12.2635154 66.6518118 13.384176 66.6518118"/>
    <polygon fill="#9CC69B" stroke="#5B85BD" stroke-width="1.2" points="26.732 61.2 24.016 64.024 22.658 62.612 21.707 63.6 24.016 66 27.683 62.188"/>
    <polygon fill="#9CC69B" stroke="#5B85BD" stroke-width="1.2" points="37.229 61.852 34.512 64.675 33.154 63.264 32.204 64.252 34.512 66.652 38.179 62.84"/>
    <polygon fill="#9CC69B" stroke="#5B85BD" stroke-width="1.2" points="58.741 61.852 56.025 64.675 54.667 63.264 53.716 64.252 56.025 66.652 59.691 62.84"/>
    <polygon fill="#9CC69B" stroke="#5B85BD" stroke-width="1.2" points="47.985 73.852 45.269 76.675 43.91 75.264 42.96 76.252 45.269 78.652 48.935 74.84"/>
    <polygon fill="#9CC69B" stroke="#5B85BD" stroke-width="1.2" points="37.229 73.852 34.512 76.675 33.154 75.264 32.204 76.252 34.512 78.652 38.179 74.84"/>
    <polygon fill="#9CC69B" stroke="#5B85BD" stroke-width="1.2" points="26.473 73.852 23.756 76.675 22.398 75.264 21.448 76.252 23.756 78.652 27.423 74.84"/>
    <polygon fill="#9CC69B" stroke="#5B85BD" stroke-width="1.2" points="69.497 49.852 66.781 52.675 65.423 51.264 64.472 52.252 66.781 54.652 70.448 50.84"/>
    <polygon fill="#9CC69B" stroke="#5B85BD" stroke-width="1.2" points="47.985 85.852 45.269 88.675 43.91 87.264 42.96 88.252 45.269 90.652 48.935 86.84"/>
    <path fill="#90B0DB" d="M45.2834878 66.6518118L46.3696978 66.6518118C47.4883319 66.6518118 48.3962089 65.7347294 48.3962089 64.6047529L48.3962089 63.5136706C48.3962089 62.3836941 47.4883319 61.4666118 46.3696978 61.4666118L45.2834878 61.4666118C44.1648537 61.4666118 43.2569767 62.3836941 43.2569767 63.5136706L43.2569767 64.6047529C43.2569767 65.7347294 44.1648537 66.6518118 45.2834878 66.6518118M66.5496957 66.6518118L67.6359056 66.6518118C68.7545398 66.6518118 69.6624168 65.7347294 69.6624168 64.6047529L69.6624168 63.5136706C69.6624168 62.3836941 68.7545398 61.4666118 67.6359056 61.4666118L66.5496957 61.4666118C65.4310615 61.4666118 64.5231845 62.3836941 64.5231845 63.5136706L64.5231845 64.6047529C64.5231845 65.7347294 65.4310615 66.6518118 66.5496957 66.6518118M77.1807731 66.6518118L78.2649565 66.6518118C79.3856172 66.6518118 80.2914677 65.7347294 80.2914677 64.6047529L80.2914677 63.5136706C80.2914677 62.3836941 79.3856172 61.4666118 78.2649565 61.4666118L77.1807731 61.4666118C76.0601124 61.4666118 75.1542619 62.3836941 75.1542619 63.5136706L75.1542619 64.6047529C75.1542619 65.7347294 76.0601124 66.6518118 77.1807731 66.6518118M13.384176 78.6557647L14.4683595 78.6557647C15.5890201 78.6557647 16.4948706 77.7407294 16.4948706 76.6087059L16.4948706 75.5176235C16.4948706 74.3856 15.5890201 73.4705647 14.4683595 73.4705647L13.384176 73.4705647C12.2635154 73.4705647 11.3576649 74.3856 11.3576649 75.5176235L11.3576649 76.6087059C11.3576649 77.7407294 12.2635154 78.6557647 13.384176 78.6557647M55.9125387 78.6557647L56.9987487 78.6557647C58.1173828 78.6557647 59.0252598 77.7407294 59.0252598 76.6087059L59.0252598 75.5176235C59.0252598 74.3856 58.1173828 73.4705647 56.9987487 73.4705647L55.9125387 73.4705647C54.7939046 73.4705647 53.8860276 74.3856 53.8860276 75.5176235L53.8860276 76.6087059C53.8860276 77.7407294 54.7939046 78.6557647 55.9125387 78.6557647M66.5496957 78.6557647L67.6359056 78.6557647C68.7545398 78.6557647 69.6624168 77.7407294 69.6624168 76.6087059L69.6624168 75.5176235C69.6624168 74.3856 68.7545398 73.4705647 67.6359056 73.4705647L66.5496957 73.4705647C65.4310615 73.4705647 64.5231845 74.3856 64.5231845 75.5176235L64.5231845 76.6087059C64.5231845 77.7407294 65.4310615 78.6557647 66.5496957 78.6557647M77.1807731 78.6557647L78.2649565 78.6557647C79.3856172 78.6557647 80.2914677 77.7407294 80.2914677 76.6087059L80.2914677 75.5176235C80.2914677 74.3856 79.3856172 73.4705647 78.2649565 73.4705647L77.1807731 73.4705647C76.0601124 73.4705647 75.1542619 74.3856 75.1542619 75.5176235L75.1542619 76.6087059C75.1542619 77.7407294 76.0601124 78.6557647 77.1807731 78.6557647M13.384176 90.6597176L14.4683595 90.6597176C15.5890201 90.6597176 16.4948706 89.7426353 16.4948706 88.6126588L16.4948706 87.5215765C16.4948706 86.3916 15.5890201 85.4745176 14.4683595 85.4745176L13.384176 85.4745176C12.2635154 85.4745176 11.3576649 86.3916 11.3576649 87.5215765L11.3576649 88.6126588C11.3576649 89.7426353 12.2635154 90.6597176 13.384176 90.6597176M24.01728 90.6597176L25.1034899 90.6597176C26.2221241 90.6597176 27.1300011 89.7426353 27.1300011 88.6126588L27.1300011 87.5215765C27.1300011 86.3916 26.2221241 85.4745176 25.1034899 85.4745176L24.01728 85.4745176C22.8986458 85.4745176 21.9907688 86.3916 21.9907688 87.5215765L21.9907688 88.6126588C21.9907688 89.7426353 22.8986458 90.6597176 24.01728 90.6597176M34.6503839 90.6597176L35.7325408 90.6597176C36.851175 90.6597176 37.759052 89.7426353 37.759052 88.6126588L37.759052 87.5215765C37.759052 86.3916 36.851175 85.4745176 35.7325408 85.4745176L34.6503839 85.4745176C33.5317497 85.4745176 32.6238727 86.3916 32.6238727 87.5215765L32.6238727 88.6126588C32.6238727 89.7426353 33.5317497 90.6597176 34.6503839 90.6597176M55.9125387 90.6597176L56.9987487 90.6597176C58.1173828 90.6597176 59.0252598 89.7426353 59.0252598 88.6126588L59.0252598 87.5215765C59.0252598 86.3916 58.1173828 85.4745176 56.9987487 85.4745176L55.9125387 85.4745176C54.7939046 85.4745176 53.8860276 86.3916 53.8860276 87.5215765L53.8860276 88.6126588C53.8860276 89.7426353 54.7939046 90.6597176 55.9125387 90.6597176"/>
  </g>
</svg>
