<svg xmlns="http://www.w3.org/2000/svg" width="123" height="84" viewBox="0 0 123 84">
  <g fill="none" fill-rule="evenodd" transform="translate(2 1)">
    <path fill="#E0EAF7" d="M6.56095397,12.0260499 C8.76928046,12.0260499 12.3415131,12.0260499 14.5602324,12.0260499 L59.2117408,12.0260499 C61.4212938,12.0260499 64.8956239,12.6460509 66.9605369,13.4066845 L72.5438976,15.4633775 C74.6138865,16.2258809 78.0805955,16.7695709 80.292809,16.6775016 L80.5342783,16.667452 C82.743895,16.5754908 83.5934099,18.0226338 82.4294938,19.9033384 L78.8975414,25.6104156 C77.7346234,27.4895074 77.2392258,30.7521153 78.2823264,32.6824404 C78.2823264,32.6824404 77.4608103,33.6134476 80.1237661,33.6134476 C82.7867219,33.6134476 82.5019283,31.3751703 83.3820987,27.6719107 C84.2622691,23.9686511 86.1086807,22.9901606 87.6695653,22.3095528 C89.2304499,21.628945 88.7841925,22.1973273 88.7841925,22.1973273 C90.8038,23.0393048 91.187373,24.9887193 89.6240639,26.5685071 L90.4865168,25.6969632 C88.9307575,27.2691217 89.4381295,28.248491 91.6155331,27.8851518 L88.9474677,28.3303668 C91.1267655,27.9667115 92.2569285,29.3462826 91.4744478,31.4046475 L92.3007466,29.2310162 C91.5170614,31.2925498 92.2799401,31.8485699 94.0143304,30.4652281 L97.9586933,27.319222 C99.6887648,25.9393248 102.87634,24.984839 105.066115,25.1861939 L102.432818,24.9440561 C104.628067,25.1459143 107.480199,23.8774286 108.806197,22.1068538 L108.173903,22.9511413 C109.498574,21.1823394 112.365955,19.6624688 114.561843,19.7499447 C114.561843,19.7499447 114.688717,19.2887848 118.36205,20.488756 C122.035383,21.6887272 118.754487,24.4263755 118.754487,24.4263755 C117.412277,26.1670849 114.661367,28.2423585 112.652878,29.1610262 C112.652878,29.1610262 108.572967,30.4026174 108.572967,32.5852532 C108.572967,34.767889 108.904394,34.8500912 108.904394,34.8500912 C109.574596,36.9533627 108.366588,38.9875944 106.178238,39.3989369 L105.193196,39.5840945 C103.017379,39.9930811 101.065027,42.1120972 100.834061,44.3021955 L100.860249,44.0538699 C100.628581,46.2506185 100.649701,49.8022652 100.909821,52.0070328 L100.680853,50.0663054 C100.939898,52.2619674 99.9642177,55.3784801 98.4972503,57.0321455 L94.5887616,61.4380598 C93.123746,63.0895251 92.4929665,66.1235195 93.1844008,68.2284505 L94.0147436,70.75626 C94.7041522,72.8550239 95.231242,76.3418854 95.1918374,78.5553007 L95.2232956,76.7882459 C95.183978,78.9967733 93.4560998,81.3913184 91.3878305,82.1281128 L93.7367478,81.2913412 C91.6577965,82.0319409 89.1833058,81.0192643 88.2154013,79.0408771 L88.0083601,78.6176868 C87.0379559,76.6341901 85.5623838,73.3757018 84.7070578,71.3264242 L84.4313674,70.6658971 C83.5785126,68.6225407 81.2137043,67.588788 79.1447911,68.3586684 L80.0651904,68.016171 C77.9983497,68.7852803 74.5460688,69.1167483 72.3700697,68.7591166 L69.6602418,68.3137485 C67.4771847,67.9549568 65.4784181,69.4482154 65.1980155,71.6323347 L64.6869673,75.6130057 C64.4056049,77.804602 62.4858014,79.0020355 60.3990911,78.2875911 L56.6560068,77.00604 C54.5692406,76.2915765 52.1541894,74.0644782 51.2680446,72.0458134 L51.1907932,71.8698324 C50.3018701,69.8448384 48.0942345,67.1996337 46.2580543,65.9603558 L45.3778212,65.3662674 C43.5424679,64.1275476 40.2795366,62.9608897 38.0792809,62.7594956 L35.9715765,62.566573 C33.7760574,62.3656125 30.4980744,61.2249467 28.6473694,60.0171099 L29.754562,60.7397037 C27.9050333,59.5326346 24.6209846,58.6151254 22.4019097,58.6909887 L24.4069335,58.6224432 C22.1957045,58.6980383 19.100826,57.5315045 17.4927157,56.0153961 L16.0290794,54.6354963 C14.4216914,53.1200689 12.2555226,50.3267465 11.1943772,48.3800756 C11.1943772,48.3800756 7.59465665,41.9583747 7.59465665,41.1415025 C7.59465665,40.3246303 6.77857677,30.6164489 6.77857677,29.8146307 C6.77857677,29.0128124 7.95701607,23.2899528 7.95701607,23.2899528 C8.39007026,21.1271976 7.7164028,17.9046434 6.4486171,16.0868417 L5.90902025,15.3131463 C4.64290031,13.4977331 5.40449602,12.0260499 7.61503612,12.0260499 L6.56095397,12.0260499 Z"/>
    <path stroke="#3877C2" stroke-width="4" d="M1.56095397,7.02604991 C3.76928046,7.02604991 7.34151314,7.02604991 9.56023239,7.02604991 L54.2117408,7.02604991 C56.4212938,7.02604991 59.8956239,7.64605086 61.9605369,8.40668449 L67.5438976,10.4633775 C69.6138865,11.2258809 73.0805955,11.7695709 75.292809,11.6775016 L75.5342783,11.667452 C77.743895,11.5754908 78.5934099,13.0226338 77.4294938,14.9033384 L73.8975414,20.6104156 C72.7346234,22.4895074 72.2392258,25.7521153 73.2823264,27.6824404 C73.2823264,27.6824404 72.4608103,28.6134476 75.1237661,28.6134476 C77.7867219,28.6134476 77.5019283,26.3751703 78.3820987,22.6719107 C79.2622691,18.9686511 81.1086807,17.9901606 82.6695653,17.3095528 C84.2304499,16.628945 83.7841925,17.1973273 83.7841925,17.1973273 C85.8038,18.0393048 86.187373,19.9887193 84.6240639,21.5685071 L85.4865168,20.6969632 C83.9307575,22.2691217 84.4381295,23.248491 86.6155331,22.8851518 L83.9474677,23.3303668 C86.1267655,22.9667115 87.2569285,24.3462826 86.4744478,26.4046475 L87.3007466,24.2310162 C86.5170614,26.2925498 87.2799401,26.8485699 89.0143304,25.4652281 L92.9586933,22.319222 C94.6887648,20.9393248 97.8763399,19.984839 100.066115,20.1861939 L97.4328179,19.9440561 C99.6280674,20.1459143 102.480199,18.8774286 103.806197,17.1068538 L103.173903,17.9511413 C104.498574,16.1823394 107.365955,14.6624688 109.561843,14.7499447 C109.561843,14.7499447 109.688717,14.2887848 113.36205,15.488756 C117.035383,16.6887272 113.754487,19.4263755 113.754487,19.4263755 C112.412277,21.1670849 109.661367,23.2423585 107.652878,24.1610262 C107.652878,24.1610262 103.572967,25.4026174 103.572967,27.5852532 C103.572967,29.767889 103.904394,29.8500912 103.904394,29.8500912 C104.574596,31.9533627 103.366588,33.9875944 101.178238,34.3989369 L100.193196,34.5840945 C98.0173795,34.9930811 96.0650267,37.1120972 95.8340606,39.3021955 L95.8602488,39.0538699 C95.6285814,41.2506185 95.6497012,44.8022652 95.9098207,47.0070328 L95.6808528,45.0663054 C95.9398981,47.2619674 94.9642177,50.3784801 93.4972503,52.0321455 L89.5887616,56.4380598 C88.123746,58.0895251 87.4929665,61.1235195 88.1844008,63.2284505 L89.0147436,65.75626 C89.7041522,67.8550239 90.231242,71.3418854 90.1918374,73.5553007 L90.2232956,71.7882459 C90.183978,73.9967733 88.4560998,76.3913184 86.3878305,77.1281128 L88.7367478,76.2913412 C86.6577965,77.0319409 84.1833058,76.0192643 83.2154013,74.0408771 L83.0083601,73.6176868 C82.0379559,71.6341901 80.5623838,68.3757018 79.7070578,66.3264242 L79.4313674,65.6658971 C78.5785126,63.6225407 76.2137043,62.588788 74.1447911,63.3586684 L75.0651904,63.016171 C72.9983497,63.7852803 69.5460688,64.1167483 67.3700697,63.7591166 L64.6602418,63.3137485 C62.4771847,62.9549568 60.4784181,64.4482154 60.1980155,66.6323347 L59.6869673,70.6130057 C59.4056049,72.804602 57.4858014,74.0020355 55.3990911,73.2875911 L51.6560068,72.00604 C49.5692406,71.2915765 47.1541894,69.0644782 46.2680446,67.0458134 L46.1907932,66.8698324 C45.3018701,64.8448384 43.0942345,62.1996337 41.2580543,60.9603558 L40.3778212,60.3662674 C38.5424679,59.1275476 35.2795366,57.9608897 33.0792809,57.7594956 L30.9715765,57.566573 C28.7760574,57.3656125 25.4980744,56.2249467 23.6473694,55.0171099 L24.754562,55.7397037 C22.9050333,54.5326346 19.6209846,53.6151254 17.4019097,53.6909887 L19.4069335,53.6224432 C17.1957045,53.6980383 14.100826,52.5315045 12.4927157,51.0153961 L11.0290794,49.6354963 C9.42169139,48.1200689 7.25552259,45.3267465 6.19437723,43.3800756 C6.19437723,43.3800756 2.59465665,36.9583747 2.59465665,36.1415025 C2.59465665,35.3246303 1.77857677,25.6164489 1.77857677,24.8146307 C1.77857677,24.0128124 2.95701607,18.2899528 2.95701607,18.2899528 C3.39007026,16.1271976 2.7164028,12.9046434 1.4486171,11.0868417 L0.909020248,10.3131463 C-0.357099685,8.49773308 0.404496015,7.02604991 2.61503612,7.02604991 L1.56095397,7.02604991 Z"/>
    <path fill="#5B85BE" stroke="#FFFFFF" stroke-width="3" d="M6.22524516,9.08127585 C6.22524516,9.08127585 5.77724242,7.16135919 5.77724242,6.564 C5.77724242,3.38 8.32721212,0.792 11.4613939,0.792 C14.5959697,0.792 17.1455455,3.38 17.1455455,6.564 C17.1455455,7.16954879 16.6858993,9.12372897 16.6858993,9.12372897 C16.6858993,9.12372897 6.22524516,9.08127585 6.22524516,9.08127585 Z"/>
    <path fill="#90B0DB" d="M11.4613939,18.612 C9.44542532,18.612 5.77724242,9.368 5.77724242,6.564 C5.77724242,3.38 8.32721212,0.792 11.4613939,0.792 C14.5959697,0.792 17.1455455,3.38 17.1455455,6.564 C17.1455455,9.368 13.4773626,18.612 11.4613939,18.612 Z"/>
    <path fill="#FFFFFF" d="M11.4613939,7.892 C10.4840303,7.892 9.68866667,7.084 9.68866667,6.092 C9.68866667,5.1 10.4840303,4.292 11.4613939,4.292 C12.4391515,4.292 13.2345152,5.1 13.2345152,6.092 C13.2345152,7.084 12.4391515,7.892 11.4613939,7.892 Z"/>
    <path fill="#5B85BE" stroke="#FFFFFF" stroke-width="3" d="M97.4613939,26.612 C95.4454253,26.612 91.7772424,17.368 91.7772424,14.564 C91.7772424,11.38 94.3272121,8.792 97.4613939,8.792 C100.59597,8.792 103.145545,11.38 103.145545,14.564 C103.145545,17.368 99.4773626,26.612 97.4613939,26.612 Z"/>
    <path fill="#90B0DB" d="M97.4613939,26.612 C95.4454253,26.612 91.7772424,17.368 91.7772424,14.564 C91.7772424,11.38 94.3272121,8.792 97.4613939,8.792 C100.59597,8.792 103.145545,11.38 103.145545,14.564 C103.145545,17.368 99.4773626,26.612 97.4613939,26.612 Z"/>
    <path fill="#FFFFFF" d="M97.4613939,15.892 C96.4840303,15.892 95.6886667,15.084 95.6886667,14.092 C95.6886667,13.1 96.4840303,12.292 97.4613939,12.292 C98.4391515,12.292 99.2345152,13.1 99.2345152,14.092 C99.2345152,15.084 98.4391515,15.892 97.4613939,15.892 Z"/>
    <path fill="#90B0DB" d="M19.4613939,44.612 C17.4454253,44.612 13.7772424,35.368 13.7772424,32.564 C13.7772424,29.38 16.3272121,26.792 19.4613939,26.792 C22.5959697,26.792 25.1455455,29.38 25.1455455,32.564 C25.1455455,35.368 21.4773626,44.612 19.4613939,44.612 Z"/>
    <path fill="#FFFFFF" d="M19.4613939,33.892 C18.4840303,33.892 17.6886667,33.084 17.6886667,32.092 C17.6886667,31.1 18.4840303,30.292 19.4613939,30.292 C20.4391515,30.292 21.2345152,31.1 21.2345152,32.092 C21.2345152,33.084 20.4391515,33.892 19.4613939,33.892 Z"/>
    <path fill="#90B0DB" d="M53.4613939,34.612 C51.4454253,34.612 47.7772424,25.368 47.7772424,22.564 C47.7772424,19.38 50.3272121,16.792 53.4613939,16.792 C56.5959697,16.792 59.1455455,19.38 59.1455455,22.564 C59.1455455,25.368 55.4773626,34.612 53.4613939,34.612 Z"/>
    <path fill="#FFFFFF" d="M53.4613939,23.892 C52.4840303,23.892 51.6886667,23.084 51.6886667,22.092 C51.6886667,21.1 52.4840303,20.292 53.4613939,20.292 C54.4391515,20.292 55.2345152,21.1 55.2345152,22.092 C55.2345152,23.084 54.4391515,23.892 53.4613939,23.892 Z"/>
    <path fill="#90B0DB" d="M85.4613939,52.612 C83.4454253,52.612 79.7772424,43.368 79.7772424,40.564 C79.7772424,37.38 82.3272121,34.792 85.4613939,34.792 C88.5959697,34.792 91.1455455,37.38 91.1455455,40.564 C91.1455455,43.368 87.4773626,52.612 85.4613939,52.612 Z"/>
    <path fill="#FFFFFF" d="M85.4613939,41.892 C84.4840303,41.892 83.6886667,41.084 83.6886667,40.092 C83.6886667,39.1 84.4840303,38.292 85.4613939,38.292 C86.4391515,38.292 87.2345152,39.1 87.2345152,40.092 C87.2345152,41.084 86.4391515,41.892 85.4613939,41.892 Z"/>
    <path fill="#90B0DB" d="M51.4613939,66.612 C49.4454253,66.612 45.7772424,57.368 45.7772424,54.564 C45.7772424,51.38 48.3272121,48.792 51.4613939,48.792 C54.5959697,48.792 57.1455455,51.38 57.1455455,54.564 C57.1455455,57.368 53.4773626,66.612 51.4613939,66.612 Z"/>
    <path fill="#FFFFFF" d="M51.4613939,55.892 C50.4840303,55.892 49.6886667,55.084 49.6886667,54.092 C49.6886667,53.1 50.4840303,52.292 51.4613939,52.292 C52.4391515,52.292 53.2345152,53.1 53.2345152,54.092 C53.2345152,55.084 52.4391515,55.892 51.4613939,55.892 Z"/>
  </g>
</svg>
